<svg width="39" height="44" viewBox="0 0 39 44" fill="none" xmlns="http://www.w3.org/2000/svg">
<path d="M28.9405 0C34.0804 0 38.2472 4.16676 38.2472 9.30671V34.2879C38.2472 39.4278 34.0804 43.5946 28.9405 43.5946V0Z" fill="#9FFFA9"/>
<rect x="13.7559" width="8.81688" height="43.5946" fill="#9FFFA9"/>
<path d="M2 8.81688C2 3.94745 5.94745 0 10.8169 0V43.5946C5.94745 43.5946 2 39.6471 2 34.7777V8.81688Z" fill="#9FFFA9"/>
<rect x="28.9405" width="10.2864" height="7.83723" transform="rotate(90 28.9405 0)" fill="#9FFFA9"/>
<rect x="28.9405" y="16.6541" width="10.2864" height="6.36775" transform="rotate(90 28.9405 16.6541)" fill="#9FFFA9"/>
<path d="M26.9405 0C32.0804 0 36.2472 4.16676 36.2472 9.30671V34.2879C36.2472 39.4278 32.0804 43.5946 26.9405 43.5946V0Z" fill="#0057FF"/>
<rect x="11.7559" width="8.81688" height="43.5946" fill="#0057FF"/>
<path d="M0 8.81688C0 3.94745 3.94745 0 8.81688 0V43.5946C3.94745 43.5946 0 39.6471 0 34.7777V8.81688Z" fill="#0057FF"/>
<rect x="26.9405" width="10.2864" height="7.83723" transform="rotate(90 26.9405 0)" fill="#0057FF"/>
<rect x="26.9405" y="16.6541" width="10.2864" height="6.36775" transform="rotate(90 26.9405 16.6541)" fill="#0057FF"/>
</svg>
